name C:/MyDriveSym/Projects/mobilecap/Data\Session20210813_0001\mocap\ForceDataProcessed\DJ1_forces.mot
datacolumns 28
datarows 20
range 2.12950000 2.13900000
endheader 
time	R_ground_force_vx	R_ground_force_vy	R_ground_force_vz	R_ground_force_px	R_ground_force_py	R_ground_force_pz	R_ground_torque_x	R_ground_torque_y	R_ground_torque_z	L_ground_force_vx	L_ground_force_vy	L_ground_force_vz	L_ground_force_px	L_ground_force_py	L_ground_force_pz	L_ground_torque_x	L_ground_torque_y	L_ground_torque_z	3_ground_force_vx	3_ground_force_vy	3_ground_force_vz	3_ground_force_px	3_ground_force_py	3_ground_force_pz	3_ground_torque_x	3_ground_torque_y	3_ground_torque_z	
          2.12950000	        -46.21416600	        706.55005000	        -98.58412100	         -0.14808800	          0.00600000	         -0.31851100	          0.00000000	          2.46255800	          0.00000000	        -80.35645600	        738.71131500	        140.05206900	         -0.12967900	          0.00600000	         -0.84818500	          0.00000000	         -2.73926700	          0.00000000	          0.00000000	          0.00000000	          0.00000000	          0.00000000	          0.00000000	          0.00000000	          0.00000000	          0.00000000	          0.00000000	
          2.13000000	        -46.53815100	        706.05272000	        -98.19601600	         -0.14803800	          0.00600000	         -0.31838700	          0.00000000	          2.46099700	          0.00000000	        -81.13761000	        737.71518900	        139.76123500	         -0.12922800	          0.00600000	         -0.84840000	          0.00000000	         -2.74239200	          0.00000000	          0.00000000	          0.00000000	          0.00000000	          0.00000000	          0.00000000	          0.00000000	          0.00000000	          0.00000000	          0.00000000	
          2.13050000	        -46.86100100	        705.54580000	        -97.80758400	         -0.14798900	          0.00600000	         -0.31826300	          0.00000000	          2.45953100	          0.00000000	        -81.92192800	        736.66876800	        139.45259100	         -0.12877500	          0.00600000	         -0.84861400	          0.00000000	         -2.74363300	          0.00000000	          0.00000000	          0.00000000	          0.00000000	          0.00000000	          0.00000000	          0.00000000	          0.00000000	          0.00000000	          0.00000000	
          2.13100000	        -47.18241200	        705.02899500	        -97.41917700	         -0.14794100	          0.00600000	         -0.31813800	          0.00000000	          2.45816200	          0.00000000	        -82.70814100	        735.57232000	        139.12587900	         -0.12832000	          0.00600000	         -0.84882800	          0.00000000	         -2.74292000	          0.00000000	          0.00000000	          0.00000000	          0.00000000	          0.00000000	          0.00000000	          0.00000000	          0.00000000	          0.00000000	          0.00000000	
          2.13150000	        -47.50207000	        704.50196300	        -97.03114100	         -0.14789500	          0.00600000	         -0.31801300	          0.00000000	          2.45689900	          0.00000000	        -83.49493500	        734.42624600	        138.78082200	         -0.12786300	          0.00600000	         -0.84904200	          0.00000000	         -2.74019000	          0.00000000	          0.00000000	          0.00000000	          0.00000000	          0.00000000	          0.00000000	          0.00000000	          0.00000000	          0.00000000	          0.00000000	
          2.13200000	        -47.81966000	        703.96432200	        -96.64381600	         -0.14784900	          0.00600000	         -0.31788800	          0.00000000	          2.45575400	          0.00000000	        -84.28095200	        733.23106700	        138.41712500	         -0.12740400	          0.00600000	         -0.84925600	          0.00000000	         -2.73538000	          0.00000000	          0.00000000	          0.00000000	          0.00000000	          0.00000000	          0.00000000	          0.00000000	          0.00000000	          0.00000000	          0.00000000	
          2.13250000	        -48.13487900	        703.41565600	        -96.25753800	         -0.14780500	          0.00600000	         -0.31776100	          0.00000000	          2.45473800	          0.00000000	        -85.06479500	        731.98741300	        138.03447000	         -0.12694400	          0.00600000	         -0.84946900	          0.00000000	         -2.72843400	          0.00000000	          0.00000000	          0.00000000	          0.00000000	          0.00000000	          0.00000000	          0.00000000	          0.00000000	          0.00000000	          0.00000000	
          2.13300000	        -48.44744900	        702.85549200	        -95.87262200	         -0.14776100	          0.00600000	         -0.31763400	          0.00000000	          2.45386100	          0.00000000	        -85.84504400	        730.69601200	        137.63252700	         -0.12648400	          0.00600000	         -0.84968200	          0.00000000	         -2.71929600	          0.00000000	          0.00000000	          0.00000000	          0.00000000	          0.00000000	          0.00000000	          0.00000000	          0.00000000	          0.00000000	          0.00000000	
          2.13350000	        -48.75713900	        702.28329700	        -95.48935400	         -0.14771900	          0.00600000	         -0.31750600	          0.00000000	          2.45312600	          0.00000000	        -86.62026200	        729.35767200	        137.21095900	         -0.12602200	          0.00600000	         -0.84989400	          0.00000000	         -2.70791400	          0.00000000	          0.00000000	          0.00000000	          0.00000000	          0.00000000	          0.00000000	          0.00000000	          0.00000000	          0.00000000	          0.00000000	
          2.13400000	        -49.06375800	        701.69850500	        -95.10798700	         -0.14767800	          0.00600000	         -0.31737700	          0.00000000	          2.45252800	          0.00000000	        -87.38900400	        727.97326100	        136.76943200	         -0.12556000	          0.00600000	         -0.85010500	          0.00000000	         -2.69424000	          0.00000000	          0.00000000	          0.00000000	          0.00000000	          0.00000000	          0.00000000	          0.00000000	          0.00000000	          0.00000000	          0.00000000	
          2.13450000	        -49.36715600	        701.10052900	        -94.72875000	         -0.14763900	          0.00600000	         -0.31724700	          0.00000000	          2.45205300	          0.00000000	        -88.14981100	        726.54367300	        136.30762200	         -0.12509700	          0.00600000	         -0.85031500	          0.00000000	         -2.67824000	          0.00000000	          0.00000000	          0.00000000	          0.00000000	          0.00000000	          0.00000000	          0.00000000	          0.00000000	          0.00000000	          0.00000000	
          2.13500000	        -49.66721200	        700.48875100	        -94.35184900	         -0.14760100	          0.00600000	         -0.31711600	          0.00000000	          2.45168100	          0.00000000	        -88.90120500	        725.06981400	        135.82523400	         -0.12463500	          0.00600000	         -0.85052400	          0.00000000	         -2.65989100	          0.00000000	          0.00000000	          0.00000000	          0.00000000	          0.00000000	          0.00000000	          0.00000000	          0.00000000	          0.00000000	          0.00000000	
          2.13550000	        -49.96383700	        699.86249800	        -93.97746400	         -0.14756300	          0.00600000	         -0.31698400	          0.00000000	          2.45138700	          0.00000000	        -89.64168900	        723.55260800	        135.32201100	         -0.12417400	          0.00600000	         -0.85073200	          0.00000000	         -2.63917500	          0.00000000	          0.00000000	          0.00000000	          0.00000000	          0.00000000	          0.00000000	          0.00000000	          0.00000000	          0.00000000	          0.00000000	
          2.13600000	        -50.25697400	        699.22105300	        -93.60573900	         -0.14752800	          0.00600000	         -0.31685000	          0.00000000	          2.45114400	          0.00000000	        -90.36974000	        721.99301900	        134.79774800	         -0.12371300	          0.00600000	         -0.85093800	          0.00000000	         -2.61607700	          0.00000000	          0.00000000	          0.00000000	          0.00000000	          0.00000000	          0.00000000	          0.00000000	          0.00000000	          0.00000000	          0.00000000	
          2.13650000	        -50.54659800	        698.56367500	        -93.23677600	         -0.14749300	          0.00600000	         -0.31671600	          0.00000000	          2.45092000	          0.00000000	        -91.08380700	        720.39205900	        134.25229700	         -0.12325300	          0.00600000	         -0.85114300	          0.00000000	         -2.59058400	          0.00000000	          0.00000000	          0.00000000	          0.00000000	          0.00000000	          0.00000000	          0.00000000	          0.00000000	          0.00000000	          0.00000000	
          2.13700000	        -50.83270900	        697.88960800	        -92.87064100	         -0.14746000	          0.00600000	         -0.31658000	          0.00000000	          2.45068500	          0.00000000	        -91.78231800	        718.75078900	        133.68556500	         -0.12279600	          0.00600000	         -0.85134600	          0.00000000	         -2.56268800	          0.00000000	          0.00000000	          0.00000000	          0.00000000	          0.00000000	          0.00000000	          0.00000000	          0.00000000	          0.00000000	          0.00000000	
          2.13750000	        -51.11532300	        697.19808700	        -92.50737000	         -0.14742800	          0.00600000	         -0.31644300	          0.00000000	          2.45040800	          0.00000000	        -92.46368900	        717.07031800	        133.09752400	         -0.12234000	          0.00600000	         -0.85154700	          0.00000000	         -2.53239400	          0.00000000	          0.00000000	          0.00000000	          0.00000000	          0.00000000	          0.00000000	          0.00000000	          0.00000000	          0.00000000	          0.00000000	
          2.13800000	        -51.39446800	        696.48834400	        -92.14697800	         -0.14739700	          0.00600000	         -0.31630400	          0.00000000	          2.45005900	          0.00000000	        -93.12633500	        715.35179100	        132.48821400	         -0.12188700	          0.00600000	         -0.85174600	          0.00000000	         -2.49971900	          0.00000000	          0.00000000	          0.00000000	          0.00000000	          0.00000000	          0.00000000	          0.00000000	          0.00000000	          0.00000000	          0.00000000	
          2.13850000	        -51.67018000	        695.75962000	        -91.78946000	         -0.14736800	          0.00600000	         -0.31616400	          0.00000000	          2.44961200	          0.00000000	        -93.76866700	        713.59636600	        131.85775700	         -0.12143700	          0.00600000	         -0.85194200	          0.00000000	         -2.46469300	          0.00000000	          0.00000000	          0.00000000	          0.00000000	          0.00000000	          0.00000000	          0.00000000	          0.00000000	          0.00000000	          0.00000000	
          2.13900000	        -51.94249000	        695.01117200	        -91.43480700	         -0.14734000	          0.00600000	         -0.31602200	          0.00000000	          2.44904600	          0.00000000	        -94.38910300	        711.80517600	        131.20634800	         -0.12099000	          0.00600000	         -0.85213700	          0.00000000	         -2.42736300	          0.00000000	          0.00000000	          0.00000000	          0.00000000	          0.00000000	          0.00000000	          0.00000000	          0.00000000	          0.00000000	          0.00000000	
